<?xml version="1.0" standalone="no"?>
<!DOCTYPE svg PUBLIC "-//W3C//DTD SVG 20010904//EN"
 "http://www.w3.org/TR/2001/REC-SVG-20010904/DTD/svg10.dtd">
<svg version="1.0" xmlns="http://www.w3.org/2000/svg"
 width="45.000000pt" height="45.000000pt" viewBox="0 0 45.000000 45.000000"
 preserveAspectRatio="xMidYMid meet">

<g transform="translate(0.000000,45.000000) scale(0.100000,-0.100000)"
fill="#000000" stroke="none">
<path d="M253 439 c-44 -13 -42 -23 3 -14 31 5 36 4 31 -9 -4 -10 6 -22 34
-38 68 -38 103 -122 79 -192 -17 -53 -26 -51 -26 8 -1 60 -21 103 -64 140 -35
29 -46 32 -53 14 -4 -9 -16 -1 -37 20 -25 27 -29 36 -19 48 13 16 2 18 -20 5
-11 -7 -6 -20 29 -60 39 -47 43 -50 55 -34 13 17 15 17 40 -7 47 -44 58 -76
52 -153 l-6 -69 21 18 c45 41 61 124 34 187 -13 32 -78 97 -97 97 -5 0 -7 11
-3 25 7 28 0 29 -53 14z"/>
<path d="M72 328 c-42 -46 -54 -120 -28 -181 13 -32 78 -97 97 -97 5 0 7 -11
3 -26 -6 -25 -6 -25 32 -18 22 3 44 11 49 16 6 6 -4 7 -29 2 -33 -6 -38 -4
-33 8 3 10 -7 22 -33 37 -68 38 -103 125 -80 195 17 54 27 51 27 -7 0 -61 20
-104 63 -141 35 -29 41 -31 57 -15 16 16 67 -49 52 -67 -13 -16 -1 -18 20 -5
11 7 6 18 -24 55 -40 49 -52 55 -62 30 -5 -13 -11 -10 -35 13 -50 47 -61 79
-55 155 3 37 5 68 3 68 -1 0 -12 -10 -24 -22z"/>
</g>
</svg>
