<svg version="1.0" xmlns="http://www.w3.org/2000/svg" width="60" height="60" viewBox="0 0 45 45"><path d="M25.3 1.1c-4.4 1.3-4.2 2.3.3 1.4 3.1-.5 3.6-.4 3.1.9-.4 1 .6 2.2 3.4 3.8C38.9 11 42.4 19.4 40 26.4c-1.7 5.3-2.6 5.1-2.6-.8-.1-6-2.1-10.3-6.4-14-3.5-2.9-4.6-3.2-5.3-1.4-.4.9-1.6.1-3.7-2-2.5-2.7-2.9-3.6-1.9-4.8 1.3-1.6.2-1.8-2-.5-1.1.7-.6 2 2.9 6 3.9 4.7 4.3 5 5.5 3.4 1.3-1.7 1.5-1.7 4 .7 4.7 4.4 5.8 7.6 5.2 15.3l-.6 6.9 2.1-1.8c4.5-4.1 6.1-12.4 3.4-18.7-1.3-3.2-7.8-9.7-9.7-9.7-.5 0-.7-1.1-.3-2.5.7-2.8 0-2.9-5.3-1.4zM7.2 12.2c-4.2 4.6-5.4 12-2.8 18.1 1.3 3.2 7.8 9.7 9.7 9.7.5 0 .7 1.1.3 2.6-.6 2.5-.6 2.5 3.2 1.8 2.2-.3 4.4-1.1 4.9-1.6.6-.6-.4-.7-2.9-.2-3.3.6-3.8.4-3.3-.8.3-1-.7-2.2-3.3-3.7-6.8-3.8-10.3-12.5-8-19.5 1.7-5.4 2.7-5.1 2.7.7 0 6.1 2 10.4 6.3 14.1 3.5 2.9 4.1 3.1 5.7 1.5 1.6-1.6 6.7 4.9 5.2 6.7-1.3 1.6-.1 1.8 2 .5 1.1-.7.6-1.8-2.4-5.5-4-4.9-5.2-5.5-6.2-3-.5 1.3-1.1 1-3.5-1.3-5-4.7-6.1-7.9-5.5-15.5.3-3.7.5-6.8.3-6.8-.1 0-1.2 1-2.4 2.2z"/></svg>