<svg height="512" width="512" xmlns="http://www.w3.org/2000/svg"><path d="M437.02 74.98C388.667 26.629 324.38 0 256 0S123.333 26.629 74.98 74.98C26.629 123.332 0 187.62 0 256c0 40.509 9.192 79.26 27.321 115.175 17.283 34.24 42.557 64.709 73.09 88.111a7.498 7.498 0 0010.515-1.39 7.5 7.5 0 00-1.39-10.515c-28.753-22.039-52.552-50.729-68.824-82.966C23.65 330.616 15 294.14 15 256c0-64.373 25.068-124.894 70.588-170.413C131.106 40.068 191.627 15 256 15s124.894 25.068 170.412 70.587C471.932 131.106 497 191.627 497 256s-25.068 124.894-70.588 170.412C380.894 471.932 320.373 497 256 497c-39.728 0-79.111-9.879-113.895-28.568a7.495 7.495 0 00-10.156 3.057 7.499 7.499 0 003.057 10.156C171.965 501.503 213.804 512 256 512c68.38 0 132.667-26.629 181.02-74.98C485.371 388.667 512 324.38 512 256s-26.629-132.668-74.98-181.02z"/><path d="M178.133 190.663c4.143 0 7.5-3.357 7.5-7.5 0-38.801 31.566-70.367 70.367-70.367 8.808 0 17.393 1.604 25.518 4.769 9.038 3.514 14.479-10.457 5.443-13.979-9.867-3.842-20.284-5.79-30.961-5.79-44.646 0-81.398 34.453-85.066 78.168-43.715 3.668-78.167 40.42-78.167 85.066 0 47.071 38.295 85.366 85.366 85.366h10.813c12.608 20.716 35.966 31.389 59.554 33.059v27.249c0 9.697 15 9.697 15 0v-27.25c23.595-1.674 46.956-12.361 59.553-33.057h10.814c47.071 0 85.366-38.295 85.366-85.366 0-44.649-34.455-81.403-78.173-85.067-1.434-16.8-7.846-32.965-18.416-46.152-6.065-7.567-17.77 1.814-11.705 9.381 10.093 12.592 15.428 27.797 15.428 43.972 0 4.143 3.357 7.5 7.5 7.5 38.8 0 70.366 31.566 70.366 70.367 0 38.8-31.566 70.366-70.366 70.366h-4.118c3.201-10.402 4.137-22.005 2.67-34.499a7.5 7.5 0 00-6.378-6.548c-.9-.129-19.813-2.752-38.354 2.846-8.686-19.373-26.357-32.751-27.195-33.378a7.503 7.503 0 00-8.982 0c-.838.627-18.51 14.005-27.195 33.378-18.54-5.599-37.453-2.976-38.354-2.846a7.501 7.501 0 00-6.378 6.548c-1.468 12.494-.532 24.096 2.669 34.499h-4.117c-38.8 0-70.366-31.566-70.366-70.366-.002-38.803 31.564-70.369 70.364-70.369zm15.85 114.063c7.421-.326 20.554-.009 31.715 4.935 4.854 1.512 8.266-.075 10.238-4.761 3.74-12.848 14.07-23.756 20.073-29.252 5.999 5.476 16.294 16.338 20.054 29.252 1.972 4.685 5.385 6.272 10.238 4.761 11.162-4.943 24.293-5.261 31.715-4.935 1.65 36.993-26.472 60.011-62.018 60.015-35.878-.001-63.668-22.938-62.015-60.015z"/></svg>