<svg height="512pt" viewBox="-32 0 512 512.001" width="512pt" xmlns="http://www.w3.org/2000/svg"><path d="M437.535 113.512h-60.293c13.04-11.848 21.953-28.125 24.172-46.633 1.238-10.305.195-19.934-3.016-27.844-11.597-28.578-49.078-44.86-85.328-37.074-.293.062-.582.14-.87.226-21.427 6.66-44.446 28.653-68.423 65.364-8.164 12.496-15 24.508-19.992 33.816-4.992-9.308-11.828-21.32-19.988-33.816-23.977-36.711-47-58.703-68.422-65.364-.29-.085-.578-.164-.871-.226C116.125-1.99 96.969.07 80.562 7.75c-5.019 2.352-7.183 8.328-4.832 13.348a10.035 10.035 0 0013.348 4.836c12.14-5.688 26.969-7.297 40.754-4.438 29.07 9.434 61.313 60.89 77.73 92.016h-85.14c-22.242 0-42.543-12.836-51.715-32.707-2.324-5.032-8.285-7.23-13.32-4.907-5.035 2.325-7.23 8.29-4.907 13.325 4.317 9.355 10.45 17.562 17.872 24.289H10.039C4.496 113.512 0 118.008 0 123.55v103.308c0 5.547 4.496 10.04 10.04 10.04h11.116V501.96c0 5.547 4.496 10.039 10.04 10.039h385.179c5.547 0 10.04-4.492 10.04-10.04V236.899h11.12c5.543 0 10.04-4.492 10.04-10.039V123.551c0-5.543-4.497-10.04-10.04-10.04zM317.738 21.496c26.426-5.484 54.192 5.711 62.055 25.086 1.937 4.773 2.52 10.965 1.687 17.906-3.355 27.95-27.57 49.024-56.328 49.024h-85.144c16.398-31.125 48.625-82.567 77.73-92.016zM20.078 216.82v-83.23h122.254v83.23zm245.324 275.102H41.234V236.898h120.86v184.75c0 5.547 4.492 10.04 10.039 10.04 5.543 0 10.039-4.493 10.039-10.04v-184.75h83.23zm19.762-275.102H162.41v-83.23h122.754zM406.34 491.922H285.48V236.898h120.856v255.024zm21.156-275.102H305.242v-83.23h122.254zm0 0"/><path d="M182.176 461.797c0 5.566-4.512 10.078-10.078 10.078s-10.078-4.512-10.078-10.078 4.511-10.078 10.078-10.078 10.078 4.511 10.078 10.078zm0 0M68.617 45.758c0 5.566-4.512 10.078-10.078 10.078s-10.078-4.512-10.078-10.078c0-5.567 4.512-10.078 10.078-10.078s10.078 4.511 10.078 10.078zm0 0"/></svg>