<svg height="512pt" viewBox="0 0 512 512.01011" width="512pt" xmlns="http://www.w3.org/2000/svg"><path d="m256.007812.00390625c-58.253906-.23828125-114.796874 19.66015575-160.0625 56.33203175-2.730468 2.195312-5.371093 4.394531-7.945312 6.632812-8.984375 7.65625-17.34375 16.019531-25.003906 25.003906-1.582032 1.839844-3.15625 3.683594-4.714844 5.589844-83.679688 101.71875-76.472656 250.34375 16.660156 343.488281 93.128906 93.144531 241.753906 100.371094 343.484375 16.703125 1.933594-1.578125 3.777344-3.15625 5.59375-4.714844 8.972657-7.644531 17.324219-15.992187 24.972657-24.960937 2.324218-2.679687 4.644531-5.367187 6.6875-8.015625 36.667968-45.261719 56.566406-101.808594 56.328124-160.058594-.160156-141.320312-114.679687-255.84375-256-255.99999975zm186.28125 405.48046875c-1.953124 2.523437-4.070312 4.960937-6.234374 7.460937-7.082032 8.308594-14.816407 16.042969-23.128907 23.125-1.738281 1.492188-3.480469 2.984376-5.332031 4.5-94.945312 78.09375-233.664062 71.347657-320.585938-15.585937-86.9218745-86.933594-93.648437-225.652344-15.542968-320.585937 1.496094-1.824219 2.988281-3.566407 4.503906-5.332032 7.089844-8.324218 14.835938-16.066406 23.160156-23.152344 2.476563-2.152343 4.964844-4.21875 7.519532-6.285156 42.242187-34.214844 95.003906-52.78125 149.359374-52.558594 131.898438.144532 238.785157 107.035157 238.933594 238.933594.214844 54.40625-18.386718 107.21875-52.652344 149.480469zm0 0"/><path d="m107.332031 129.394531c-1.710937-1.753906-4.109375-2.664062-6.554687-2.484375-2.4375.148438-4.695313 1.339844-6.199219 3.261719-63.628906 81.464844-56.519531 197.589844 16.570313 270.683594 73.09375 73.097656 189.21875 80.210937 270.683593 16.585937 1.929688-1.507812 3.117188-3.765625 3.269531-6.207031.148438-2.441406-.753906-4.828125-2.484374-6.558594zm148.675781 314.339844c-69.996093.058594-134.203124-38.867187-166.53125-100.953125-32.328124-62.085938-27.394531-137.007812 12.789063-194.320312l261.28125 261.277343c-31.535156 22.046875-69.0625 33.910157-107.539063 33.996094zm0 0"/><path d="m316.839844 60.425781c-63.023438-19.59375-131.628906-7.578125-184.242188 32.269531-1.972656 1.484376-3.199218 3.753907-3.371094 6.214844-.171874 2.464844.734376 4.878906 2.476563 6.625l274.773437 274.6875c1.601563 1.601563 3.769532 2.503906 6.035157 2.5.191406 0 .386719-.007812.582031-.019531 2.457031-.167969 4.722656-1.390625 6.210938-3.355469 40.269531-53.160156 52.101562-122.609375 31.699218-186.105468-20.398437-63.492188-70.464844-113.058594-134.164062-132.816407zm94.597656 300.628907-260.554688-260.472657c30.984376-21.121093 67.628907-32.382812 105.125-32.3125 69.460938-.066406 133.269532 38.257813 165.835938 99.609375 32.570312 61.351563 28.566406 135.675782-10.40625 193.171875zm0 0"/></svg>